<svg width="60" height="12" viewBox="0 0 60 12" fill="none" xmlns="http://www.w3.org/2000/svg">
<path fill-rule="evenodd" clip-rule="evenodd" d="M12.7105 12C12.9247 11.9218 13.1422 11.8415 13.3634 11.759C13.5808 11.6779 14.3223 11.4 14.4239 11.362C20.1838 9.20853 23.7882 8.4 30 8.4C36.1627 8.4 39.2171 9.13306 44.7772 11.3571C45.3506 11.5865 45.8987 11.8005 46.4273 12H50.1624C48.6559 11.5617 47.079 10.9854 45.2228 10.2429C39.5329 7.96694 36.3373 7.2 30 7.2C23.6245 7.2 19.8869 8.03843 14.0037 10.238C13.9013 10.2763 13.1603 10.554 12.944 10.6347C11.4591 11.1887 10.1476 11.6397 8.90965 12H12.7105ZM12.7105 0C7.95451 1.73517 4.84604 2.4 0 2.4H0L0 1.2C3.44635 1.2 5.97084 0.855384 8.90965 0L12.7105 0V0ZM46.4273 0C51.1431 1.77986 54.3014 2.4 60 2.4V1.2C55.8946 1.2 53.1686 0.874686 50.1624 0L46.4273 0V0ZM0 8.4C5.0643 8.4 8.231 7.67393 13.3634 5.759C13.5808 5.6779 14.3223 5.4 14.4239 5.36201C20.1838 3.20853 23.7882 2.4 30 2.4C36.1627 2.4 39.2171 3.13306 44.7772 5.35709C50.4671 7.63306 53.6627 8.4 60 8.4V7.2C53.8373 7.2 50.7829 6.46694 45.2228 4.24291C39.5329 1.96694 36.3373 1.2 30 1.2C23.6245 1.2 19.8869 2.03843 14.0037 4.23799C13.9013 4.27627 13.1603 4.55398 12.944 4.6347C7.93411 6.5039 4.89811 7.2 0 7.2L0 8.4H0Z" fill="#176CCF"/>
</svg>
