<svg xmlns="http://www.w3.org/2000/svg" viewBox="0 0 222 24"><defs><style>.cls-1,.cls-2{fill:#176ccf;}.cls-1{opacity:0.5;}</style></defs><path class="cls-1" d="M8,5.26a5.63,5.63,0,0,1,3.16-.89,6,6,0,0,1,1.87.28,4.77,4.77,0,0,1,1.52.83,4.23,4.23,0,0,1,1.08,1.29,5,5,0,0,1,.56,1.73h5a9.91,9.91,0,0,0-1.09-3.61,8.75,8.75,0,0,0-2.2-2.66A9.43,9.43,0,0,0,14.84.57,12.06,12.06,0,0,0,11.07,0,11,11,0,0,0,5.52,1.41,10.07,10.07,0,0,0,1.62,5.5,13.57,13.57,0,0,0,.19,12a13.68,13.68,0,0,0,1.42,6.49,10,10,0,0,0,3.87,4.1A11,11,0,0,0,11.07,24a11.31,11.31,0,0,0,4-.68,9.58,9.58,0,0,0,3.08-1.85,9.34,9.34,0,0,0,2.06-2.65,9,9,0,0,0,1-3.1l-5,0a4.91,4.91,0,0,1-.61,1.66,4.36,4.36,0,0,1-1.1,1.24,4.79,4.79,0,0,1-1.51.77,6.39,6.39,0,0,1-1.84.26A5.63,5.63,0,0,1,8,18.76,5.66,5.66,0,0,1,5.94,16.2,10.38,10.38,0,0,1,5.19,12a10.37,10.37,0,0,1,.74-4.13A5.85,5.85,0,0,1,8,5.26Z"/><rect class="cls-1" x="24.11" y="0.32" width="4.94" height="23.36"/><path class="cls-1" d="M39.28.32,31.22,23.68h5.29l1.73-5.33h8.44l1.73,5.33H53.7L45.65.32ZM39.5,14.5l2.87-8.84h.18l2.88,8.84Z"/><polygon class="cls-1" points="70.49 15.01 70.28 15.01 60.2 0.32 55.86 0.32 55.86 23.68 60.8 23.68 60.8 8.98 60.97 8.98 71.14 23.68 75.4 23.68 75.4 0.32 70.49 0.32 70.49 15.01"/><path class="cls-2" d="M100.06,1.72A12.46,12.46,0,0,0,94,.32H85.64V23.68h8.28a12.63,12.63,0,0,0,6.12-1.4,9.57,9.57,0,0,0,3.94-4A13.43,13.43,0,0,0,105.35,12,13.32,13.32,0,0,0,104,5.73,9.54,9.54,0,0,0,100.06,1.72Zm-.4,14.52a5,5,0,0,1-2.26,2.43,7.93,7.93,0,0,1-3.69.78H90.58V4.55h3.15a7.89,7.89,0,0,1,3.68.78,4.88,4.88,0,0,1,2.25,2.42,10,10,0,0,1,.76,4.23A10.19,10.19,0,0,1,99.66,16.24Z"/><path class="cls-2" d="M124.46,1.41a11.75,11.75,0,0,0-11.16,0,10,10,0,0,0-3.92,4.09A13.69,13.69,0,0,0,108,12a13.67,13.67,0,0,0,1.43,6.49,10.14,10.14,0,0,0,3.92,4.1,11.75,11.75,0,0,0,11.16,0,10,10,0,0,0,3.92-4.09,13.57,13.57,0,0,0,1.45-6.5,13.57,13.57,0,0,0-1.45-6.5A10,10,0,0,0,124.46,1.41Zm-.38,14.77A5.64,5.64,0,0,1,122,18.75a6,6,0,0,1-6.25,0,5.64,5.64,0,0,1-2.07-2.57A10.56,10.56,0,0,1,113,12a10.48,10.48,0,0,1,.74-4.17,5.62,5.62,0,0,1,2.07-2.58,6,6,0,0,1,6.25,0,5.62,5.62,0,0,1,2.07,2.58,10.48,10.48,0,0,1,.74,4.17A10.56,10.56,0,0,1,124.08,16.18Z"/><polygon class="cls-2" points="137.77 0.32 132.83 0.32 132.83 23.68 147.79 23.68 147.79 19.61 137.77 19.61 137.77 0.32"/><path class="cls-2" d="M164.16,1.33a9.4,9.4,0,0,0-4.52-1h-9.22V23.68h4.94V16.11h4.15a9.72,9.72,0,0,0,4.59-1,6.87,6.87,0,0,0,2.9-2.77,8.17,8.17,0,0,0,1-4.1,8.34,8.34,0,0,0-1-4.12A6.93,6.93,0,0,0,164.16,1.33Zm-1.7,8.94a3.25,3.25,0,0,1-1.39,1.38,5,5,0,0,1-2.36.5h-3.35V4.36h3.33a5.15,5.15,0,0,1,2.37.48,3.29,3.29,0,0,1,1.4,1.36,4.26,4.26,0,0,1,.46,2A4.31,4.31,0,0,1,162.46,10.27Z"/><polygon class="cls-2" points="185.55 9.96 175.52 9.96 175.52 0.32 170.58 0.32 170.58 23.68 175.52 23.68 175.52 14.03 185.55 14.03 185.55 23.68 190.47 23.68 190.47 0.32 185.55 0.32 185.55 9.96"/><rect class="cls-2" x="193.91" y="0.32" width="4.94" height="23.36"/><polygon class="cls-2" points="216.9 0.32 216.9 15.01 216.69 15.01 206.61 0.32 202.27 0.32 202.27 23.68 207.21 23.68 207.21 8.98 207.38 8.98 217.55 23.68 221.81 23.68 221.81 0.32 216.9 0.32"/></svg>